<svg viewBox="0 0 171 72" version="1.1" xmlns="http://www.w3.org/2000/svg" xmlns:xlink="http://www.w3.org/1999/xlink" stroke="none" fill-rule="evenodd">
<path d="M40.3197976,56.5731636 L40.3197976,36.3443031 C40.3197976,33.4642019 38.1019307,31.2008435 35.2805395,31.2008435 L15.1201349,31.2008435 C12.3997244,31.2008435 10.0808766,33.4642019 10.0808766,36.3443031 L10.0808766,56.5731636 C10.0808766,59.4514092 12.3997244,61.7147676 15.1201349,61.7147676 L35.2805395,61.7147676 C38.1019307,61.7147676 40.3197976,59.4514092 40.3197976,56.5731636 Z M35.2805395,20.9139242 C43.6455868,20.9139242 50.4,27.8067337 50.4,36.3443031 L50.4,56.5731636 C50.4,65.1088776 43.6455868,72 35.2805395,72 L5.03993256,72 C2.31952208,72 0.00067432868,69.7383284 0.00067432868,66.8582272 L0.00067432868,35.0203978 L0,35.0203978 L0,5.1434596 C0,2.2633584 2.31867917,0 5.04094408,0 C7.86233528,0 10.0802023,2.2633584 10.0802023,5.1434596 L10.0802023,15.8062276 C10.0802023,18.4791734 12.077901,20.6197231 14.5413923,20.9139242 L35.2805395,20.9139242 Z M105.358651,21.6 C108.081121,21.6 110.4,23.8344893 110.4,26.6778549 L110.4,66.9238104 C110.4,69.767176 108.081121,72 105.358651,72 L65.0391572,72 C62.2178968,72 60,69.767176 60,66.9238104 L60,26.6778549 C60,23.8344893 62.3168556,21.6 65.0391572,21.6 C67.8624404,21.6 70.0803372,23.8344893 70.0803372,26.6778549 L70.0803372,56.7681008 C70.0803372,59.6114664 72.2963796,61.8459556 75.1194944,61.8459556 L95.278314,61.8459556 C98.000784,61.8459556 100.319663,59.6114664 100.319663,56.7681008 L100.319663,26.6778549 C100.319663,23.8344893 102.537391,21.6 105.358651,21.6 Z M160.319359,56.571308 L160.319359,36.3426162 C160.319359,33.4642019 158.000657,31.2008435 155.280219,31.2008435 L135.119612,31.2008435 C132.298024,31.2008435 130.080304,33.4642019 130.080304,36.3426162 L130.080304,56.571308 C130.080304,59.4514092 132.298024,61.7147676 135.119612,61.7147676 L155.280219,61.7147676 C158.000657,61.7147676 160.319359,59.4514092 160.319359,56.571308 Z M170.4,5.1434596 L170.4,66.8582272 C170.4,69.7383284 168.080286,72 165.358668,72 L135.119612,72 C126.754481,72 120,65.1088776 120,56.571308 L120,36.3426162 C120,27.8067337 126.754481,20.9139242 135.119612,20.9139242 L155.85981,20.9139242 C158.321978,20.6197231 160.319528,18.4791734 160.319528,15.8062276 L160.319528,5.1434596 C160.319528,2.2633584 162.537586,0 165.358837,0 C168.081972,0 170.4,2.2633584 170.4,5.1434596 Z"></path>
</svg>